<svg xmlns="http://www.w3.org/2000/svg" width="194.52380959589362" height="131.31746077399373" preserveAspectRatio="xMinYMin meet" style=""><rect id="backgroundrect" width="100%" height="100%" x="0" y="0" fill="none" stroke="none" class="" style=""/><g class="currentLayer" style=""><title>Layer 1</title><g class=""><path d="M114.32225325440766,55.419488178234715 c-3.4275897631645207,0 -5.9800632548332215,1.602500538825989 -5.9800632548332215,5.459465081691742 c0,2.905844317674637 1.682256401538849,4.9235487806797025 5.795119158267974,4.9235487806797025 c3.486379939556122,0 5.854521732330323,-1.95647354722023 5.854521732330323,-5.044261157512665 c0,-3.4989094734191895 -2.1188959407806403,-5.33875270485878 -5.6695776357650765,-5.33875270485878 zm-6.852729935646057,27.233761886358263 c-0.8114269137382505,0.9476213157176971 -1.6197918391227746,1.9553072440624235 -1.6197918391227746,3.1431870102882384 c0,2.371677471399307 3.175894320487976,3.085455003976822 7.538615326881409,3.085455003976822 c3.6131462574005138,0 8.535598734855652,-0.2414247536659244 8.535598734855652,-3.4405943155288696 c0,-1.9016572988033296 -2.3681417927742006,-2.0188707661628724 -5.3603168120384215,-2.197315149307251 l-9.094105410575866,-0.5907325494289395 zm18.44113105916977,-27.054734351634977 c1.119462942123413,1.3645746946334838 2.305064832687378,3.2638993871212008 2.305064832687378,5.992465624809265 c0,6.5849476289749145 -5.420331783771515,10.44074586868286 -13.268820332050325,10.44074586868286 c-1.9958040089607239,0 -3.8023771376609803,-0.2367595410346985 -4.922452477455139,-0.5330005431175232 l-2.0570437760353086,3.1431870102882384 l6.104992379665374,0.3557224631309522 c10.779423800468445,0.6542960715293902 17.131824839115144,0.9517033767700196 17.131824839115144,8.838828481435776 c0,6.824039776325225 -6.2905488739013675,10.678088561296462 -17.131824839115144,10.678088561296462 c-11.27607831144333,0 -15.575109960079192,-2.7291493892669676 -15.575109960079192,-7.415355477333068 c0,-2.6696679282188422 1.246229259967804,-4.090808326005935 3.4269773654937743,-6.051947085857392 c-2.056431378364563,-0.8274920904636386 -2.741091974258423,-2.3098634040355686 -2.741091974258423,-3.9129470944404603 c0,-1.3062595367431642 0.6846605958938606,-2.491806696653366 1.8077979240417479,-3.6202050018310548 c1.120687737464905,-1.1254825472831727 2.3663045997619627,-2.253880852460861 3.8617797117233277,-3.5589740860462187 c-3.0521899909973143,-1.4240561556816103 -5.358479619026184,-4.508928008079529 -5.358479619026184,-8.900059397220613 c0,-6.8211240184307105 4.735671187877656,-11.506163803339005 14.265803740024568,-11.506163803339005 c2.6798522071838384,0 4.300256443977356,0.2344269347190857 5.733266993522644,0.5930651557445525 h12.149969787597657 v5.040762248039246 l-5.7326545958518995,0.4157870757579811 zM142.6040024847925,44.817792473774574 c-3.5519064903259276,0 -5.607725471019745,-1.959389305114746 -5.607725471019745,-5.3422516143321985 c0,-3.3781970965862276 2.0552065830230712,-5.219206631183624 5.607725471019745,-5.219206631183624 c3.6131462574005138,0 5.6695776357650765,1.8410095345973971 5.6695776357650765,5.219206631183624 c0,3.3828623092174532 -2.055818980693817,5.3422516143321985 -5.6695776357650765,5.3422516143321985 zM134.56567065858246,80.46993055317941 v-4.6844566333293916 l3.1783439111709595,-0.4140376210212708 c0.8726666808128355,-0.11954607367515595 0.9963710103034992,-0.2968241536617283 0.9963710103034992,-1.188462917804718 V56.74090965602936 c0,-0.6507971620559696 -0.1861688919067384,-1.0683336925506592 -0.8114269137382505,-1.2444454693794251 l-3.363288007736206,-1.1283983051776887 l0.6846605958938606,-4.804002707004547 h12.897707343578338 V74.18297338102403 c0,0.9505370736122132 0.06001497173309337,1.0689168441295624 0.9975958056449896,1.1890460693836213 l3.1771191158294676,0.4140376210212708 v4.6838734817504895 H134.56567065858246 zM176.96012421130538,78.1699807259852 c-2.6798522071838384,1.2450286209583281 -6.604708878993988,2.37226062297821 -10.15722776699066,2.37226062297821 c-7.413686202049255,0 -10.216017943382262,-2.8446134018898013 -10.216017943382262,-9.552022862434386 V55.448645757179875 c0,-0.3557224631309522 0,-0.5930651557445525 -0.5003288969993591,-0.5930651557445525 h-4.360271415710449 V49.573976751309054 c5.484021141529083,-0.5948146104812626 7.662932054042816,-3.205001077651978 8.348205047607422,-9.671568936109542 h5.919435885429382 v8.426540315151215 c0,0.4140376210212708 0,0.5930651557445525 0.49910410165786856,0.5930651557445525 h8.783619791507721 v5.932401012182236 H165.99391912125947 v14.178164337873458 c0,3.5000757765769963 0.873279078483585,4.863484168052674 4.235954688549041,4.863484168052674 c1.7465581569671633,0 3.551294092655182,-0.4140376210212708 5.046156806945801,-0.9482044672966006 l1.6840935945510886,5.221539237499237 " fill="#2F2707" id="svg_1" class=""/><path d="M84.64852411841751,62.6015830240065 L56.16223406600358,35.477453634482046 a4.201048021316528,4.0004198312759405 0 0 0 -5.942094599246978,0 l-5.915149101734162,5.6332442522048956 l7.503708659648895,7.144773144721985 a4.987979028224945,4.74976961016655 0 0 1 5.133729673862458,1.1388950335979462 a4.9953278002738974,4.756767429113388 0 0 1 1.1856018905639647,4.918300416469574 L65.35860988759401,61.19910347674431 c1.7496201453208928,-0.5738211536407485 3.7686952657699586,-0.2023535978794099 5.165574352741242,1.1301477599143983 a4.997777390956879,4.759100035429 0 0 1 0,6.732484978437424 a4.999614583969116,4.76084949016571 0 0 1 -8.1595865650177,-5.178386020660401 L55.62087452506425,57.46168500755371 l-0.0006123976707458519,16.899732756614686 a5.051055988311767,4.8098342227935795 0 0 1 1.3221665711402903,0.9003860378265375 a4.999614583969116,4.76084949016571 0 0 1 0,6.733651281595231 c-1.9535485696792603,1.8602535367012023 -5.119644527435303,1.8602535367012023 -7.070131108760834,0 a4.999614583969116,4.76084949016571 0 0 1 1.6363265762329102,-7.7722442436218255 v-17.05718368291855 a4.938374816894531,4.70253433227539 0 0 1 -1.6363265762329102,-1.0391761136054993 c-1.4795527725219726,-1.4071447598934175 -1.8353558192253114,-3.474417107105255 -1.0772075028419494,-5.204627841711044 l-7.396539067268371,-7.044471073150635 L21.866739708894514,62.475622282963414 a4.2028852143287665,4.002169286012649 0 0 0 0,5.660069224834442 l28.48629005241394,27.124712541103364 a4.20227281665802,4.0015861344337464 0 0 0 5.942094599246978,0 l28.35339975786209,-26.998168648481368 a4.204722407341003,4.003918740749359 0 0 0 0,-5.6606523764133465 " fill="#DE4C36" id="svg_2" class=""/></g></g></svg>